<?xml version="1.0" encoding="UTF-8" standalone="no"?>
<svg
   xmlns:dc="http://purl.org/dc/elements/1.1/"
   xmlns:cc="http://creativecommons.org/ns#"
   xmlns:rdf="http://www.w3.org/1999/02/22-rdf-syntax-ns#"
   xmlns:svg="http://www.w3.org/2000/svg"
   xmlns="http://www.w3.org/2000/svg"
   viewBox="0 0 1178.0387 377.95334"
   height="377.95334"
   width="1178.0387"
   xml:space="preserve"
   id="svg2"
   version="1.1"><metadata
     id="metadata8"><rdf:RDF><cc:Work
         rdf:about=""><dc:format>image/svg+xml</dc:format><dc:type
           rdf:resource="http://purl.org/dc/dcmitype/StillImage" /></cc:Work></rdf:RDF></metadata><defs
     id="defs6"><clipPath
       id="clipPath20"
       clipPathUnits="userSpaceOnUse"><path
         id="path18"
         d="M 0,283.465 H 883.529 V 0 H 0 Z" /></clipPath></defs><g
     transform="matrix(1.3333333,0,0,-1.3333333,0,377.95333)"
     id="g10"><path
       id="path12"
       style="fill:#ffffff;fill-opacity:1;fill-rule:nonzero;stroke:none"
       d="m 447.898,181.988 h 23.743 V 92.427 h -23.743 z m -0.001,33.686 h 23.743 v -21.299 h -23.743 z" /><g
       id="g14"><g
         clip-path="url(#clipPath20)"
         id="g16"><g
           transform="translate(507.7808,167.6724)"
           id="g22"><path
             id="path24"
             style="fill:#ffffff;fill-opacity:1;fill-rule:nonzero;stroke:none"
             d="m 0,0 h 0.524 c 5.413,10.127 11.523,15.364 21.997,15.364 2.618,0 4.192,-0.176 5.587,-0.698 V -6.109 h -0.525 c -15.536,1.57 -26.71,-6.635 -26.71,-25.49 v -43.646 h -23.744 v 89.56 l 22.871,0 z" /></g><path
           id="path26"
           style="fill:#ffffff;fill-opacity:1;fill-rule:nonzero;stroke:none"
           d="m 582.15,181.988 h 23.744 V 92.427 H 582.15 Z m -10e-4,33.686 h 23.743 v -21.299 h -23.743 z" /><g
           transform="translate(642.3784,169.7681)"
           id="g28"><path
             id="path30"
             style="fill:#ffffff;fill-opacity:1;fill-rule:nonzero;stroke:none"
             d="m 0,0 h 0.523 c 6.112,9.602 14.315,14.664 26.536,14.664 18.508,0 30.902,-13.966 30.902,-33.519 V -77.341 H 34.219 v 54.994 c 0,9.603 -5.588,16.411 -15.539,16.411 -10.474,0 -18.157,-8.38 -18.157,-20.6 V -77.341 H -23.219 V 12.22 L 0,12.22 Z" /></g><g
           transform="translate(733.853,146.897)"
           id="g32"><path
             id="path34"
             style="fill:#ffffff;fill-opacity:1;fill-rule:nonzero;stroke:none"
             d="M 0,0 H 39.805 C 39.105,11.349 31.6,19.206 20.775,19.206 8.205,19.206 2.095,11.697 0,0 m -23.742,-9.602 c 0,26.538 17.98,47.137 44.168,47.137 28.806,0 44.169,-21.997 44.169,-53.944 H -0.349 c 1.746,-13.791 9.427,-22.348 22.87,-22.348 9.252,0 14.665,4.191 17.284,11 H 63.199 C 59.882,-43.645 45.74,-57.089 22.696,-57.089 c -29.678,0 -46.438,20.777 -46.438,47.487" /></g><g
           transform="translate(803.9175,121.4097)"
           id="g36"><path
             id="path38"
             style="fill:#ffffff;fill-opacity:1;fill-rule:nonzero;stroke:none"
             d="m 0,0 h 21.997 c 1.573,-10.301 8.903,-14.84 19.555,-14.84 10.475,0 16.411,4.016 16.411,10.299 0,8.555 -11.348,9.429 -23.568,11.871 -16.063,3.144 -31.776,7.509 -31.776,27.062 0,19.378 16.063,28.63 36.488,28.63 23.569,0 36.663,-11.697 38.409,-29.677 H 56.043 c -1.049,9.6 -7.16,13.093 -17.284,13.093 -9.253,0 -15.364,-3.493 -15.364,-9.952 0,-7.68 11.872,-8.38 24.617,-10.999 C 63.025,22.345 79.611,18.155 79.611,-2.795 79.611,-20.777 64.246,-31.602 41.9,-31.602 15.887,-31.602 1.398,-19.032 0,0" /></g><g
           transform="translate(358.6221,138.5181)"
           id="g40"><path
             id="path42"
             style="fill:#ffffff;fill-opacity:1;fill-rule:nonzero;stroke:none"
             d="M 0,0 18.332,52.375 37.186,0 Z M 33.255,77.156 H 5.621 L -44.343,-46.091 h 28.282 l 9.253,25.315 H 44.17 l 9.426,-25.315 h 28.458 z" /></g><g
           transform="translate(545.1382,215.6743)"
           id="g44"><path
             id="path46"
             style="fill:#ffffff;fill-opacity:1;fill-rule:nonzero;stroke:none"
             d="M 0,0 V -123.247 H 23.746 L 23.745,0 Z" /></g><g
           transform="translate(283.4644,141.7017)"
           id="g48"><path
             id="path50"
             style="fill:#c3d600;fill-opacity:1;fill-rule:nonzero;stroke:none"
             d="m 0,0 c 0,-78.301 -63.411,-141.701 -141.689,-141.701 -78.288,0 -141.775,63.4 -141.775,141.701 0,78.302 63.487,141.763 141.775,141.763 C -63.411,141.763 0,78.302 0,0" /></g><g
           transform="translate(235.7378,215.6802)"
           id="g52"><path
             id="path54"
             style="fill:#ffffff;fill-opacity:1;fill-rule:nonzero;stroke:none"
             d="m 0,0 h -69.347 l -9.856,-24.64 h 22.986 c 15.467,0 18.442,0.333 22.326,0.333 -5.607,-12.827 -39.4,-98.941 -39.4,-98.941 h 28.6 c 0,0 42.784,107.197 47.318,118.436 C 3.884,-2.303 3.26,0 0,0 m -104.291,0 c -22.324,0 -36.807,-1.233 -47.291,-5.126 -17.618,-6.863 -29.785,-21.247 -29.785,-40.149 0,-15.745 7.331,-27.147 28.547,-40.26 22.637,-13.724 27.153,-18.259 27.153,-26.528 0,-9.049 -8.867,-19.35 -31.682,-19.35 -7.963,0 -19.956,1.101 -27.62,2.976 l -3.657,0.922 c -2.04,-5.468 -6.671,-18.406 -8.083,-23.099 l 3.621,-1.066 c 6.894,-2.199 23.255,-3.916 34.977,-3.916 38.995,0 62.261,23.559 62.261,48.23 0,15.159 -6.881,26.679 -30.142,41.194 -11.668,7.177 -17.614,11.83 -21.225,15.434 -2.927,3.76 -3.251,6.56 -3.251,9.517 0,2.823 0.628,6.076 2.489,8.459 2.013,2.947 5.705,4.824 10.702,6.372 5.135,1.704 14.652,1.749 29.473,1.749 h 13.8 L -84.15,0 Z" /></g></g></g></g></svg>